<?xml version="1.0" encoding="iso-8859-1"?>
<!-- Uploaded to: SVG Repo, www.svgrepo.com, Generator: SVG Repo Mixer Tools -->
<svg version="1.1" id="Layer_1" xmlns="http://www.w3.org/2000/svg" xmlns:xlink="http://www.w3.org/1999/xlink" 
	 viewBox="0 0 512 512" xml:space="preserve">
<path style="fill:#9E52B6;" d="M360.088,0c-21.581,0-40.782,10.138-53.142,25.897L256,90.813l-22.505,66.725l126.593-22.505
	c37.288,0,67.516-30.228,67.516-67.516S397.376,0,360.088,0z M360.088,101.275h-69.386l42.8-54.536
	c6.473-8.252,16.16-12.98,26.586-12.98c18.614,0,33.758,15.144,33.758,33.758S378.702,101.275,360.088,101.275z"/>
<path style="fill:#B175C8;" d="M205.054,25.897C192.694,10.138,173.493,0,151.912,0c-37.288,0-67.516,30.228-67.516,67.516
	s30.228,67.516,67.516,67.516L256,157.538V90.813L205.054,25.897z M151.912,101.275c-18.614,0-33.758-15.144-33.758-33.758
	s15.144-33.758,33.758-33.758c10.426,0,20.113,4.728,26.578,12.971l42.808,54.545H151.912z"/>
<polygon style="fill:#FFC5BF;" points="50.637,225.055 50.637,258.813 408.914,258.813 427.604,512 461.363,512 461.363,225.055 
	256,168.791 "/>
<g>
	<polygon style="fill:#FFD8D4;" points="50.637,258.813 50.637,512 222.242,512 256,478.242 289.758,512 427.604,512 
		427.604,258.813 	"/>
	<polygon style="fill:#FFD8D4;" points="438.857,135.033 416.352,168.791 438.857,225.055 472.615,225.055 472.615,135.033 	"/>
</g>
<rect x="39.385" y="135.033" style="fill:#FFECEA;" width="399.473" height="90.022"/>
<rect x="222.242" y="135.033" style="fill:#B175C8;" width="67.516" height="376.967"/>
<path style="fill:#C397DB;" d="M256,67.516c-18.645,0-33.758,15.114-33.758,33.758v33.758h67.516v-33.758
	C289.758,82.63,274.645,67.516,256,67.516z"/>
<g>
	<circle style="fill:#FFFFFF;" cx="92.835" cy="469.802" r="8.44"/>
	<circle style="fill:#FFFFFF;" cx="126.593" cy="436.044" r="8.44"/>
	<circle style="fill:#FFFFFF;" cx="385.407" cy="301.011" r="8.44"/>
</g>
</svg>